<svg width="73" height="31" viewBox="0 0 73 31" fill="none" xmlns="http://www.w3.org/2000/svg">
<path d="M0 0H9.53846L26.2308 31H16.6923L0 0Z" fill="#2E2E2E"/>
<path d="M0 0H9.53846L26.2308 31H16.6923L0 0Z" fill="#2E2E2E"/>
<path d="M42.9231 0H33.3846L16.6923 31H26.2308L42.9231 0Z" fill="#2E2E2E"/>
<path d="M42.9231 0H33.3846L16.6923 31H26.2308L42.9231 0Z" fill="#2E2E2E"/>
<path d="M72.9231 31L63.3846 31L46.6923 1.52153e-06L56.2308 2.35541e-06L72.9231 31Z" fill="#2E2E2E"/>
<path d="M72.9231 31L63.3846 31L46.6923 1.52153e-06L56.2308 2.35541e-06L72.9231 31Z" fill="#2E2E2E"/>
<path d="M30 31L39.5385 31L56.2308 -1.52153e-06L46.6923 -2.35541e-06L30 31Z" fill="#2E2E2E"/>
<path d="M30 31L39.5385 31L56.2308 -1.52153e-06L46.6923 -2.35541e-06L30 31Z" fill="#2E2E2E"/>
<rect x="46" y="20" width="11" height="7" rx="3.5" fill="#FF6B6B"/>
</svg>
