<svg width="200" height="85" viewBox="0 0 200 85" fill="none" xmlns="http://www.w3.org/2000/svg">
<path d="M0 3.05176e-05H26.1538L71.9231 85H45.7692L0 3.05176e-05Z" fill="#F7F7F7"/>
<path d="M0 3.05176e-05H26.1538L71.9231 85H45.7692L0 3.05176e-05Z" fill="#F7F7F7"/>
<path d="M117.692 3.05176e-05H91.5385L45.7693 85H71.9232L117.692 3.05176e-05Z" fill="#F7F7F7"/>
<path d="M117.692 3.05176e-05H91.5385L45.7693 85H71.9232L117.692 3.05176e-05Z" fill="#F7F7F7"/>
<path d="M199.423 85L173.269 85L127.5 1.66005e-05L153.654 1.88869e-05L199.423 85Z" fill="#F7F7F7"/>
<path d="M199.423 85L173.269 85L127.5 1.66005e-05L153.654 1.88869e-05L199.423 85Z" fill="#F7F7F7"/>
<path d="M81.7306 85.0001L107.884 85.0001L153.654 5.96935e-05L127.5 5.7407e-05L81.7306 85.0001Z" fill="#F7F7F7"/>
<path d="M81.7306 85.0001L107.884 85.0001L153.654 5.96935e-05L127.5 5.7407e-05L81.7306 85.0001Z" fill="#F7F7F7"/>
<rect x="127" y="52" width="26.1538" height="19.6154" rx="9.80769" fill="#FF6B6B"/>
</svg>
