<svg width="83" height="35" viewBox="0 0 83 35" fill="none" xmlns="http://www.w3.org/2000/svg">
<path d="M0.562012 0H11.3312L30.1774 35H19.4082L0.562012 0Z" fill="#F7F7F7"/>
<path d="M0.562012 0H11.3312L30.1774 35H19.4082L0.562012 0Z" fill="#F7F7F7"/>
<path d="M49.0234 0H38.2542L19.4081 35H30.1773L49.0234 0Z" fill="#F7F7F7"/>
<path d="M49.0234 0H38.2542L19.4081 35H30.1773L49.0234 0Z" fill="#F7F7F7"/>
<path d="M82.6772 35L71.908 35L53.0619 -2.58906e-06L63.8311 -1.64758e-06L82.6772 35Z" fill="#F7F7F7"/>
<path d="M82.6772 35L71.908 35L53.0619 -2.58906e-06L63.8311 -1.64758e-06L82.6772 35Z" fill="#F7F7F7"/>
<path d="M34.2158 35L44.9851 35L63.8312 2.58906e-06L53.062 1.64758e-06L34.2158 35Z" fill="#F7F7F7"/>
<path d="M34.2158 35L44.9851 35L63.8312 2.58906e-06L53.062 1.64758e-06L34.2158 35Z" fill="#F7F7F7"/>
<rect x="53.562" y="18" width="10" height="8" rx="4" fill="#F2C12E"/>
</svg>
