<svg width="74" height="74" viewBox="0 0 74 74" fill="none" xmlns="http://www.w3.org/2000/svg">
<rect width="74" height="74" rx="37" fill="#FF6B6B" fill-opacity="0.4"/>
<path d="M47.875 23.9375H24.125C22.1575 23.9375 20.5625 25.5325 20.5625 27.5V48.875C20.5625 50.8425 22.1575 52.4375 24.125 52.4375H47.875C49.8425 52.4375 51.4375 50.8425 51.4375 48.875V27.5C51.4375 25.5325 49.8425 23.9375 47.875 23.9375Z" stroke="#FF6B6B" stroke-width="3.4375" stroke-linejoin="round"/>
<path d="M38.9688 37C39.9525 37 40.75 36.2025 40.75 35.2188C40.75 34.235 39.9525 33.4375 38.9688 33.4375C37.985 33.4375 37.1875 34.235 37.1875 35.2188C37.1875 36.2025 37.985 37 38.9688 37Z" fill="#FF6B6B"/>
<path d="M44.9062 37C45.89 37 46.6875 36.2025 46.6875 35.2188C46.6875 34.235 45.89 33.4375 44.9062 33.4375C43.9225 33.4375 43.125 34.235 43.125 35.2188C43.125 36.2025 43.9225 37 44.9062 37Z" fill="#FF6B6B"/>
<path d="M38.9688 42.9375C39.9525 42.9375 40.75 42.14 40.75 41.1562C40.75 40.1725 39.9525 39.375 38.9688 39.375C37.985 39.375 37.1875 40.1725 37.1875 41.1562C37.1875 42.14 37.985 42.9375 38.9688 42.9375Z" fill="#FF6B6B"/>
<path d="M44.9062 42.9375C45.89 42.9375 46.6875 42.14 46.6875 41.1562C46.6875 40.1725 45.89 39.375 44.9062 39.375C43.9225 39.375 43.125 40.1725 43.125 41.1562C43.125 42.14 43.9225 42.9375 44.9062 42.9375Z" fill="#FF6B6B"/>
<path d="M27.0938 42.9375C28.0775 42.9375 28.875 42.14 28.875 41.1562C28.875 40.1725 28.0775 39.375 27.0938 39.375C26.11 39.375 25.3125 40.1725 25.3125 41.1562C25.3125 42.14 26.11 42.9375 27.0938 42.9375Z" fill="#FF6B6B"/>
<path d="M33.0312 42.9375C34.015 42.9375 34.8125 42.14 34.8125 41.1562C34.8125 40.1725 34.015 39.375 33.0312 39.375C32.0475 39.375 31.25 40.1725 31.25 41.1562C31.25 42.14 32.0475 42.9375 33.0312 42.9375Z" fill="#FF6B6B"/>
<path d="M27.0938 48.875C28.0775 48.875 28.875 48.0775 28.875 47.0938C28.875 46.11 28.0775 45.3125 27.0938 45.3125C26.11 45.3125 25.3125 46.11 25.3125 47.0938C25.3125 48.0775 26.11 48.875 27.0938 48.875Z" fill="#FF6B6B"/>
<path d="M33.0312 48.875C34.015 48.875 34.8125 48.0775 34.8125 47.0938C34.8125 46.11 34.015 45.3125 33.0312 45.3125C32.0475 45.3125 31.25 46.11 31.25 47.0938C31.25 48.0775 32.0475 48.875 33.0312 48.875Z" fill="#FF6B6B"/>
<path d="M38.9688 48.875C39.9525 48.875 40.75 48.0775 40.75 47.0938C40.75 46.11 39.9525 45.3125 38.9688 45.3125C37.985 45.3125 37.1875 46.11 37.1875 47.0938C37.1875 48.0775 37.985 48.875 38.9688 48.875Z" fill="#FF6B6B"/>
<path d="M26.5 21.5625V23.9375M45.5 21.5625V23.9375" stroke="#FF6B6B" stroke-width="3.4375" stroke-linecap="round" stroke-linejoin="round"/>
<path d="M51.4375 29.875H20.5625" stroke="#FF6B6B" stroke-width="3.4375" stroke-linejoin="round"/>
</svg>
