<svg width="74" height="74" viewBox="0 0 74 74" fill="none" xmlns="http://www.w3.org/2000/svg">
<rect width="74" height="74" rx="37" fill="#FFD93D" fill-opacity="0.2"/>
<path d="M23.6667 27C24.5508 27 25.3986 26.6488 26.0237 26.0237C26.6489 25.3985 27 24.5507 27 23.6666C27 22.7826 26.6489 21.9347 26.0237 21.3096C25.3986 20.6845 24.5508 20.3333 23.6667 20.3333C22.7827 20.3333 21.9348 20.6845 21.3097 21.3096C20.6846 21.9347 20.3334 22.7826 20.3334 23.6666C20.3334 24.5507 20.6846 25.3985 21.3097 26.0237C21.9348 26.6488 22.7827 27 23.6667 27ZM25.3334 52C26.6595 52 27.9312 51.4732 28.8689 50.5355C29.8066 49.5978 30.3334 48.3261 30.3334 47C30.3334 45.6739 29.8066 44.4021 28.8689 43.4644C27.9312 42.5268 26.6595 42 25.3334 42C24.0073 42 22.7355 42.5268 21.7978 43.4644C20.8602 44.4021 20.3334 45.6739 20.3334 47C20.3334 48.3261 20.8602 49.5978 21.7978 50.5355C22.7355 51.4732 24.0073 52 25.3334 52ZM48.6667 53.6666C49.9928 53.6666 51.2646 53.1399 52.2022 52.2022C53.1399 51.2645 53.6667 49.9927 53.6667 48.6666C53.6667 47.3406 53.1399 46.0688 52.2022 45.1311C51.2646 44.1934 49.9928 43.6666 48.6667 43.6666C47.3406 43.6666 46.0689 44.1934 45.1312 45.1311C44.1935 46.0688 43.6667 47.3406 43.6667 48.6666C43.6667 49.9927 44.1935 51.2645 45.1312 52.2022C46.0689 53.1399 47.3406 53.6666 48.6667 53.6666ZM35.3334 40.3333C37.1015 40.3333 38.7972 39.6309 40.0474 38.3807C41.2977 37.1304 42 35.4348 42 33.6666C42 31.8985 41.2977 30.2028 40.0474 28.9526C38.7972 27.7024 37.1015 27 35.3334 27C33.5653 27 31.8696 27.7024 30.6193 28.9526C29.3691 30.2028 28.6667 31.8985 28.6667 33.6666C28.6667 35.4348 29.3691 37.1304 30.6193 38.3807C31.8696 39.6309 33.5653 40.3333 35.3334 40.3333ZM45.3334 27C46.2174 27 47.0653 26.6488 47.6904 26.0237C48.3155 25.3985 48.6667 24.5507 48.6667 23.6666C48.6667 22.7826 48.3155 21.9347 47.6904 21.3096C47.0653 20.6845 46.2174 20.3333 45.3334 20.3333C44.4493 20.3333 43.6015 20.6845 42.9764 21.3096C42.3512 21.9347 42 22.7826 42 23.6666C42 24.5507 42.3512 25.3985 42.9764 26.0237C43.6015 26.6488 44.4493 27 45.3334 27Z" stroke="#FFD93D" stroke-width="3" stroke-linecap="round" stroke-linejoin="round"/>
<path d="M26.5 26.8444L29.3043 29.3778M42 26.8444L40.5 28M45 44L40.5 39M29 43L30.8672 40.5" stroke="#FFD93D" stroke-width="4" stroke-linecap="round" stroke-linejoin="round"/>
</svg>
