<svg width="74" height="74" viewBox="0 0 74 74" fill="none" xmlns="http://www.w3.org/2000/svg">
<rect x="0.5" width="73.3863" height="73.3863" rx="36.6931" fill="#FFD93D" fill-opacity="0.3"/>
<path d="M31.6735 50V48.236H32.7895C33.2215 48.236 33.6055 48.188 33.9415 48.092C34.2775 47.972 34.5415 47.744 34.7335 47.408C34.9495 47.048 35.0575 46.52 35.0575 45.824V28.472C35.0575 27.752 34.9495 27.224 34.7335 26.888C34.5415 26.552 34.2775 26.336 33.9415 26.24C33.6055 26.12 33.2215 26.06 32.7895 26.06H31.6735V24.296H43.3375V26.06H42.2215C41.8135 26.06 41.4295 26.12 41.0695 26.24C40.7335 26.336 40.4695 26.552 40.2775 26.888C40.0855 27.224 39.9895 27.752 39.9895 28.472V45.824C39.9895 46.52 40.0855 47.048 40.2775 47.408C40.4695 47.744 40.7335 47.972 41.0695 48.092C41.4295 48.188 41.8135 48.236 42.2215 48.236H43.3375V50H31.6735Z" fill="#FFD93D"/>
</svg>
