<svg width="74" height="74" viewBox="0 0 74 74" fill="none" xmlns="http://www.w3.org/2000/svg">
<rect x="0.25" width="73.3863" height="73.3863" rx="36.6931" fill="#4ECDC4" fill-opacity="0.4"/>
<path d="M24.445 50V48.236H25.561C25.993 48.236 26.377 48.188 26.713 48.092C27.049 47.972 27.313 47.744 27.505 47.408C27.721 47.048 27.829 46.52 27.829 45.824V28.472C27.829 27.752 27.721 27.224 27.505 26.888C27.313 26.552 27.049 26.336 26.713 26.24C26.377 26.12 25.993 26.06 25.561 26.06H24.445V24.296H36.109V26.06H34.993C34.585 26.06 34.201 26.12 33.841 26.24C33.505 26.336 33.241 26.552 33.049 26.888C32.857 27.224 32.761 27.752 32.761 28.472V45.824C32.761 46.52 32.857 47.048 33.049 47.408C33.241 47.744 33.505 47.972 33.841 48.092C34.201 48.188 34.585 48.236 34.993 48.236H36.109V50H24.445ZM38.402 50V48.236H39.518C39.95 48.236 40.334 48.188 40.67 48.092C41.006 47.972 41.27 47.744 41.462 47.408C41.678 47.048 41.786 46.52 41.786 45.824V28.472C41.786 27.752 41.678 27.224 41.462 26.888C41.27 26.552 41.006 26.336 40.67 26.24C40.334 26.12 39.95 26.06 39.518 26.06H38.402V24.296H50.066V26.06H48.95C48.542 26.06 48.158 26.12 47.798 26.24C47.462 26.336 47.198 26.552 47.006 26.888C46.814 27.224 46.718 27.752 46.718 28.472V45.824C46.718 46.52 46.814 47.048 47.006 47.408C47.198 47.744 47.462 47.972 47.798 48.092C48.158 48.188 48.542 48.236 48.95 48.236H50.066V50H38.402Z" fill="#4ECDC4"/>
</svg>
