<svg width="74" height="74" viewBox="0 0 74 74" fill="none" xmlns="http://www.w3.org/2000/svg">
<rect width="73.3863" height="73.3863" rx="36.6931" fill="#FF6B6B" fill-opacity="0.3"/>
<path d="M17.2165 50V48.236H18.3325C18.7645 48.236 19.1485 48.188 19.4845 48.092C19.8205 47.972 20.0845 47.744 20.2765 47.408C20.4925 47.048 20.6005 46.52 20.6005 45.824V28.472C20.6005 27.752 20.4925 27.224 20.2765 26.888C20.0845 26.552 19.8205 26.336 19.4845 26.24C19.1485 26.12 18.7645 26.06 18.3325 26.06H17.2165V24.296H28.8805V26.06H27.7645C27.3565 26.06 26.9725 26.12 26.6125 26.24C26.2765 26.336 26.0125 26.552 25.8205 26.888C25.6285 27.224 25.5325 27.752 25.5325 28.472V45.824C25.5325 46.52 25.6285 47.048 25.8205 47.408C26.0125 47.744 26.2765 47.972 26.6125 48.092C26.9725 48.188 27.3565 48.236 27.7645 48.236H28.8805V50H17.2165ZM31.1735 50V48.236H32.2895C32.7215 48.236 33.1055 48.188 33.4415 48.092C33.7775 47.972 34.0415 47.744 34.2335 47.408C34.4495 47.048 34.5575 46.52 34.5575 45.824V28.472C34.5575 27.752 34.4495 27.224 34.2335 26.888C34.0415 26.552 33.7775 26.336 33.4415 26.24C33.1055 26.12 32.7215 26.06 32.2895 26.06H31.1735V24.296H42.8375V26.06H41.7215C41.3135 26.06 40.9295 26.12 40.5695 26.24C40.2335 26.336 39.9695 26.552 39.7775 26.888C39.5855 27.224 39.4895 27.752 39.4895 28.472V45.824C39.4895 46.52 39.5855 47.048 39.7775 47.408C39.9695 47.744 40.2335 47.972 40.5695 48.092C40.9295 48.188 41.3135 48.236 41.7215 48.236H42.8375V50H31.1735ZM45.1305 50V48.236H46.2465C46.6785 48.236 47.0625 48.188 47.3985 48.092C47.7345 47.972 47.9985 47.744 48.1905 47.408C48.4065 47.048 48.5145 46.52 48.5145 45.824V28.472C48.5145 27.752 48.4065 27.224 48.1905 26.888C47.9985 26.552 47.7345 26.336 47.3985 26.24C47.0625 26.12 46.6785 26.06 46.2465 26.06H45.1305V24.296H56.7945V26.06H55.6785C55.2705 26.06 54.8865 26.12 54.5265 26.24C54.1905 26.336 53.9265 26.552 53.7345 26.888C53.5425 27.224 53.4465 27.752 53.4465 28.472V45.824C53.4465 46.52 53.5425 47.048 53.7345 47.408C53.9265 47.744 54.1905 47.972 54.5265 48.092C54.8865 48.188 55.2705 48.236 55.6785 48.236H56.7945V50H45.1305Z" fill="#FF6B6B"/>
</svg>
