<svg width="75" height="74" viewBox="0 0 75 74" fill="none" xmlns="http://www.w3.org/2000/svg">
<rect x="0.75" width="73.3863" height="73.3863" rx="36.6931" fill="#CBA6F7" fill-opacity="0.3"/>
<path d="M20.0133 50V48.236H21.1293C21.5613 48.236 21.9453 48.188 22.2813 48.092C22.6173 47.972 22.8813 47.744 23.0733 47.408C23.2893 47.048 23.3973 46.52 23.3973 45.824V28.472C23.3973 27.752 23.2893 27.224 23.0733 26.888C22.8813 26.552 22.6173 26.336 22.2813 26.24C21.9453 26.12 21.5613 26.06 21.1293 26.06H20.0133V24.296H31.6773V26.06H30.5613C30.1533 26.06 29.7693 26.12 29.4093 26.24C29.0733 26.336 28.8093 26.552 28.6173 26.888C28.4253 27.224 28.3293 27.752 28.3293 28.472V45.824C28.3293 46.52 28.4253 47.048 28.6173 47.408C28.8093 47.744 29.0733 47.972 29.4093 48.092C29.7693 48.188 30.1533 48.236 30.5613 48.236H31.6773V50H20.0133ZM35.8784 27.86C35.7104 27.38 35.5064 27.008 35.2664 26.744C35.0264 26.48 34.7504 26.3 34.4384 26.204C34.1504 26.108 33.8384 26.06 33.5024 26.06H32.8184V24.296H43.9424V26.06H42.6104C42.1304 26.06 41.7224 26.168 41.3864 26.384C41.0744 26.576 40.9184 26.936 40.9184 27.464C40.9184 27.584 40.9304 27.74 40.9544 27.932C41.0024 28.1 41.0504 28.268 41.0984 28.436C41.1464 28.58 41.1944 28.736 41.2424 28.904L45.0224 40.244C45.1424 40.604 45.2624 41 45.3824 41.432C45.5024 41.84 45.6104 42.272 45.7064 42.728C45.8264 43.184 45.9344 43.628 46.0304 44.06C46.1264 44.468 46.2104 44.864 46.2824 45.248C46.3544 44.768 46.4624 44.252 46.6064 43.7C46.7504 43.148 46.9064 42.584 47.0744 42.008C47.2424 41.408 47.4224 40.844 47.6144 40.316L51.4304 29.156C51.5024 28.988 51.5624 28.796 51.6104 28.58C51.6584 28.364 51.6944 28.16 51.7184 27.968C51.7664 27.776 51.7904 27.62 51.7904 27.5C51.7904 26.996 51.6344 26.636 51.3224 26.42C51.0104 26.18 50.5784 26.06 50.0264 26.06H48.5504V24.296H57.6224V26.06H56.2904C55.9784 26.06 55.7144 26.132 55.4984 26.276C55.2824 26.396 55.0784 26.648 54.8864 27.032C54.6944 27.416 54.4664 27.992 54.2024 28.76L46.8224 50H43.5824L35.8784 27.86Z" fill="#CBA6F7"/>
</svg>
