<svg width="74" height="74" viewBox="0 0 74 74" fill="none" xmlns="http://www.w3.org/2000/svg">
<rect width="74" height="74" rx="37" fill="#4ECDC4" fill-opacity="0.4"/>
<path d="M27.8333 39.5C27.8333 37.1068 25.8932 35.1667 23.5 35.1667C21.1068 35.1667 19.1667 37.1068 19.1667 39.5V46C19.1667 48.3932 21.1068 50.3333 23.5 50.3333C25.8932 50.3333 27.8333 48.3932 27.8333 46V39.5ZM40.8333 30.8333C40.8333 28.4401 38.8932 26.5 36.5 26.5C34.1068 26.5 32.1667 28.4401 32.1667 30.8333V46C32.1667 48.3932 34.1068 50.3333 36.5 50.3333C38.8932 50.3333 40.8333 48.3932 40.8333 46V30.8333ZM53.8333 24.3333C53.8333 21.9401 51.8932 20 49.5 20C47.1068 20 45.1667 21.9401 45.1667 24.3333V35.1667V46C45.1667 48.3932 47.1068 50.3333 49.5 50.3333C51.8932 50.3333 53.8333 48.3932 53.8333 46V24.3333Z" fill="#4ECDC4"/>
</svg>
