<svg width="74" height="74" viewBox="0 0 74 74" fill="none" xmlns="http://www.w3.org/2000/svg">
<rect x="0.5" width="73.3863" height="73.3863" rx="36.6931" fill="#2E2E2E" fill-opacity="0.3"/>
<path d="M28.6498 27.86C28.4818 27.38 28.2778 27.008 28.0378 26.744C27.7978 26.48 27.5218 26.3 27.2098 26.204C26.9218 26.108 26.6098 26.06 26.2738 26.06H25.5898V24.296H36.7138V26.06H35.3818C34.9018 26.06 34.4938 26.168 34.1578 26.384C33.8458 26.576 33.6898 26.936 33.6898 27.464C33.6898 27.584 33.7018 27.74 33.7258 27.932C33.7738 28.1 33.8218 28.268 33.8698 28.436C33.9178 28.58 33.9658 28.736 34.0138 28.904L37.7938 40.244C37.9138 40.604 38.0338 41 38.1538 41.432C38.2738 41.84 38.3818 42.272 38.4778 42.728C38.5978 43.184 38.7058 43.628 38.8018 44.06C38.8978 44.468 38.9818 44.864 39.0538 45.248C39.1258 44.768 39.2338 44.252 39.3778 43.7C39.5218 43.148 39.6778 42.584 39.8458 42.008C40.0138 41.408 40.1938 40.844 40.3858 40.316L44.2018 29.156C44.2738 28.988 44.3338 28.796 44.3818 28.58C44.4298 28.364 44.4658 28.16 44.4898 27.968C44.5378 27.776 44.5618 27.62 44.5618 27.5C44.5618 26.996 44.4058 26.636 44.0938 26.42C43.7818 26.18 43.3498 26.06 42.7978 26.06H41.3218V24.296H50.3938V26.06H49.0618C48.7498 26.06 48.4858 26.132 48.2698 26.276C48.0538 26.396 47.8498 26.648 47.6578 27.032C47.4658 27.416 47.2378 27.992 46.9738 28.76L39.5938 50H36.3538L28.6498 27.86Z" fill="#2E2E2E"/>
</svg>
